<?xml version='1.0' encoding='UTF-8' standalone='no'?>
<!-- Created with Fritzing (http://www.fritzing.org/) -->
<svg xmlns="http://www.w3.org/2000/svg" version="1.2" x="0in" viewBox="0 0 294.551 400" y="0in" width="0.294551in" baseProfile="tiny"  height="0.4in">
    <desc>
        <referenceFile>sparkfun-discretesemi_sot89_breadboard.svg</referenceFile>
    </desc>
    <desc >Fritzing breadboard generated by brd2svg</desc>
    <g  id="breadboard" gorn="0.1">
        <g  id="icon" gorn="0.1.0">
            <path stroke-width="0" fill="#1F7A34"  stroke="none" d="M0,0L0,170A30,30 0 0 1 0,230L0,400L294.551,400L294.551,0L0,0z"/>
            <g transform="translate(52.7244,107.48)" >
                <g >
                    <g transform="matrix(0.5, 0, 0, 0.5, 47.2756, 46.2598)" >
                        <g >
                            <rect x="24.0787" stroke-width="0" fill="#8c8c8c" y="137.795" width="22.8346" connectorname="1"  height="47.244" stroke="none" stroke-linecap="round"/>
                            <rect x="83.1337" stroke-width="0" fill="#8c8c8c" y="137.795" width="22.8346" connectorname="2"  height="47.244" stroke="none" stroke-linecap="round"/>
                            <rect x="142.189" stroke-width="0" fill="#8c8c8c" y="137.795" width="22.8346" connectorname="3"  height="47.244" stroke="none" stroke-linecap="round"/>
                            <rect x="55.181" stroke-width="0" fill="#8c8c8c" y="-1.74838e-14" width="78.74" connectorname="4"  height="78.74" stroke="none" stroke-linecap="round"/>
                            <rect x="0" stroke-width="0" fill="#303030" y="37.3386" width="189.102"  height="110.362" stroke="none"/>
                            <polygon points="0,37.3386 189.102,37.3386 179.102,47.3386 10,47.3386" fill="#1f1f1f" />
                            <polygon points="0,147.701 189.102,147.701 179.102,137.701 10,137.701" fill="#1f1f1f" />
                            <polygon points="0,37.3386 0,147.701 10,137.701 10,47.3386" fill="#000000" />
                            <polygon points="189.102,37.3386 189.102,147.701 179.102,137.701 179.102,47.3386" fill="#3d3d3d" />
                            <circle stroke-width="0" cx="30" fill="#1f1f1f" r="10" cy="117.701"  stroke="none"/>
                        </g>
                    </g>
                </g>
            </g>
            <text x="50" stroke-width="0" font-family="OCRA" fill="white" y="224.375"  id="label" stroke="none" font-size="65" gorn="0.1.0.2" text-anchor="start">SOT89</text>
            <g transform="translate(110.776,326.05)" >
                <g >
                    <g transform="rotate(-90)" >
                        <g >
                            <text x="0" stroke-width="0" font-family="OCRA" fill="white" y="0"  stroke="none" font-size="45" text-anchor="start">1</text>
                        </g>
                    </g>
                </g>
            </g>
            <g transform="translate(110.776,73.95)" >
                <g >
                    <g transform="rotate(-90)" >
                        <g >
                            <text x="0" stroke-width="0" font-family="OCRA" fill="white" y="0"  stroke="none" font-size="45" text-anchor="end">4</text>
                        </g>
                    </g>
                </g>
            </g>
            <g transform="translate(210.776,326.05)" >
                <g >
                    <g transform="rotate(-90)" >
                        <g >
                            <text x="0" stroke-width="0" font-family="OCRA" fill="white" y="0"  stroke="none" font-size="45" text-anchor="start">2</text>
                        </g>
                    </g>
                </g>
            </g>
            <g transform="translate(210.776,73.95)" >
                <g >
                    <g transform="rotate(-90)" >
                        <g >
                            <text x="0" stroke-width="0" font-family="OCRA" fill="white" y="0"  stroke="none" font-size="45" text-anchor="end">3</text>
                        </g>
                    </g>
                </g>
            </g>
        </g>
        <g transform="translate(81.3106,334.05)" >
            <g >
                <rect x="0" fill="#8D8C8C" y="0" width="31.93"  height="31.9" id="connector0pin" gorn="0.1.1.0.0"/>
                <rect x="7.79153" fill="#8C8663" y="7.73544" width="16.4442"  height="16.4152"/>
                <polygon points="0,31.9,7.79153,24.1368,7.79153,6.97162,0,0" fill="#B8AF82" />
                <polygon points="24.2079,7.76321,7.90264,7.76321,0,0,31.93,0" fill="#80795B" />
                <polygon points="24.2079,24.1368,24.2079,7.76321,31.93,0,31.93,31.9" fill="#5E5B43" />
                <polygon points="0,31.9,7.87486,24.1368,24.2079,24.1368,31.93,31.9" fill="#9A916C" />
            </g>
        </g>
        <g transform="translate(81.3106,34.05)" >
            <g >
                <rect x="0" fill="#8D8C8C" y="0" width="31.93"  height="31.9" id="connector3pin" gorn="0.1.2.0.0"/>
                <rect x="7.79153" fill="#8C8663" y="7.73544" width="16.4442"  height="16.4152"/>
                <polygon points="0,31.9,7.79153,24.1368,7.79153,6.97162,0,0" fill="#B8AF82" />
                <polygon points="24.2079,7.76321,7.90264,7.76321,0,0,31.93,0" fill="#80795B" />
                <polygon points="24.2079,24.1368,24.2079,7.76321,31.93,0,31.93,31.9" fill="#5E5B43" />
                <polygon points="0,31.9,7.87486,24.1368,24.2079,24.1368,31.93,31.9" fill="#9A916C" />
            </g>
        </g>
        <g transform="translate(181.311,334.05)" >
            <g >
                <rect x="0" fill="#8D8C8C" y="0" width="31.93"  height="31.9" id="connector1pin" gorn="0.1.3.0.0"/>
                <rect x="7.79153" fill="#8C8663" y="7.73544" width="16.4442"  height="16.4152"/>
                <polygon points="0,31.9,7.79153,24.1368,7.79153,6.97162,0,0" fill="#B8AF82" />
                <polygon points="24.2079,7.76321,7.90264,7.76321,0,0,31.93,0" fill="#80795B" />
                <polygon points="24.2079,24.1368,24.2079,7.76321,31.93,0,31.93,31.9" fill="#5E5B43" />
                <polygon points="0,31.9,7.87486,24.1368,24.2079,24.1368,31.93,31.9" fill="#9A916C" />
            </g>
        </g>
        <g transform="translate(181.311,34.05)" >
            <g >
                <rect x="0" fill="#8D8C8C" y="0" width="31.93"  height="31.9" id="connector2pin" gorn="0.1.4.0.0"/>
                <rect x="7.79153" fill="#8C8663" y="7.73544" width="16.4442"  height="16.4152"/>
                <polygon points="0,31.9,7.79153,24.1368,7.79153,6.97162,0,0" fill="#B8AF82" />
                <polygon points="24.2079,7.76321,7.90264,7.76321,0,0,31.93,0" fill="#80795B" />
                <polygon points="24.2079,24.1368,24.2079,7.76321,31.93,0,31.93,31.9" fill="#5E5B43" />
                <polygon points="0,31.9,7.87486,24.1368,24.2079,24.1368,31.93,31.9" fill="#9A916C" />
            </g>
        </g>
    </g>
</svg>
