<?xml version='1.0' encoding='UTF-8' standalone='no'?>
<!-- Created with Fritzing (http://www.fritzing.org/) -->
<svg xmlns="http://www.w3.org/2000/svg" baseProfile="tiny" width="0.294551in" y="0in" height="0.4in" x="0in" viewBox="0 0 294.551 400" version="1.2">
  <desc>
    <referenceFile>sparkfun-discretesemi_sot89_breadboard.svg</referenceFile>
  </desc>
  <desc >Fritzing breadboard generated by brd2svg</desc>
  <g gorn="0.1" id="breadboard">
    <g gorn="0.1.0" id="icon">
      <path stroke-width="0" stroke="none" d="M0,0L0,170A30,30 0 0 1 0,230L0,400L294.551,400L294.551,0L0,0z" fill="#1F7A34"/>
      <g transform="translate(52.7244,107.48)">
        <g >
          <g transform="matrix(0.5, 0, 0, 0.5, 47.2756, 46.2598)">
            <g >
              <rect width="22.8346" y="137.795" stroke-width="0" height="47.244" x="24.0787" stroke="none" fill="#8c8c8c" stroke-linecap="round"/>
              <rect width="22.8346" y="137.795" stroke-width="0" height="47.244" x="83.1337" stroke="none" fill="#8c8c8c" stroke-linecap="round"/>
              <rect width="22.8346" y="137.795" stroke-width="0" height="47.244" x="142.189" stroke="none" fill="#8c8c8c" stroke-linecap="round"/>
              <rect width="78.74" y="-1.74838e-14" stroke-width="0" height="78.74" x="55.181" stroke="none" fill="#8c8c8c" stroke-linecap="round"/>
              <rect width="189.102" y="37.3386" stroke-width="0" height="110.362" x="0" stroke="none" fill="#303030"/>
              <polygon points="0,37.3386 189.102,37.3386 179.102,47.3386 10,47.3386" fill="#1f1f1f"/>
              <polygon points="0,147.701 189.102,147.701 179.102,137.701 10,137.701" fill="#1f1f1f"/>
              <polygon points="0,37.3386 0,147.701 10,137.701 10,47.3386" fill="#000000"/>
              <polygon points="189.102,37.3386 189.102,147.701 179.102,137.701 179.102,47.3386" fill="#3d3d3d"/>
              <circle cx="30" stroke-width="0" r="10" cy="117.701" stroke="none" fill="#1f1f1f"/>
            </g>
          </g>
        </g>
      </g>
      <text text-anchor="start" gorn="0.1.0.2" y="224.375" stroke-width="0" id="label" font-family="OCRA" x="50" stroke="none" fill="white" font-size="65">AMC7135</text>
      <g transform="translate(110.776,326.05)">
        <g >
          <g transform="rotate(-90)">
            <g >
              <text text-anchor="start" y="0" stroke-width="0" font-family="OCRA" x="0" stroke="none" fill="white" font-size="45">1</text>
            </g>
          </g>
        </g>
      </g>
      <g transform="translate(110.776,73.95)">
        <g >
          <g transform="rotate(-90)">
            <g >
              <text text-anchor="end" y="0" stroke-width="0" font-family="OCRA" x="0" stroke="none" fill="white" font-size="45">4</text>
            </g>
          </g>
        </g>
      </g>
      <g transform="translate(210.776,326.05)">
        <g >
          <g transform="rotate(-90)">
            <g >
              <text text-anchor="start" y="0" stroke-width="0" font-family="OCRA" x="0" stroke="none" fill="white" font-size="45">2</text>
            </g>
          </g>
        </g>
      </g>
      <g transform="translate(210.776,73.95)">
        <g >
          <g transform="rotate(-90)">
            <g >
              <text text-anchor="end" y="0" stroke-width="0" font-family="OCRA" x="0" stroke="none" fill="white" font-size="45">3</text>
            </g>
          </g>
        </g>
      </g>
    </g>
    <g transform="translate(81.3106,334.05)">
      <g >
        <rect width="31.93" gorn="0.1.1.0.0" y="0" height="31.9" id="connector1pin" x="0" fill="#8D8C8C"/>
        <rect width="16.4442" y="7.73544" height="16.4152" x="7.79153" fill="#8C8663"/>
        <polygon points="0,31.9,7.79153,24.1368,7.79153,6.97162,0,0" fill="#B8AF82"/>
        <polygon points="24.2079,7.76321,7.90264,7.76321,0,0,31.93,0" fill="#80795B"/>
        <polygon points="24.2079,24.1368,24.2079,7.76321,31.93,0,31.93,31.9" fill="#5E5B43"/>
        <polygon points="0,31.9,7.87486,24.1368,24.2079,24.1368,31.93,31.9" fill="#9A916C"/>
      </g>
    </g>
    <g transform="translate(81.3106,34.05)">
      <g >
        <rect width="31.93" gorn="0.1.2.0.0" y="0" height="31.9" id="connector4pin" x="0" fill="#8D8C8C"/>
        <rect width="16.4442" y="7.73544" height="16.4152" x="7.79153" fill="#8C8663"/>
        <polygon points="0,31.9,7.79153,24.1368,7.79153,6.97162,0,0" fill="#B8AF82"/>
        <polygon points="24.2079,7.76321,7.90264,7.76321,0,0,31.93,0" fill="#80795B"/>
        <polygon points="24.2079,24.1368,24.2079,7.76321,31.93,0,31.93,31.9" fill="#5E5B43"/>
        <polygon points="0,31.9,7.87486,24.1368,24.2079,24.1368,31.93,31.9" fill="#9A916C"/>
      </g>
    </g>
    <g transform="translate(181.311,334.05)">
      <g >
        <rect width="31.93" gorn="0.1.3.0.0" y="0" height="31.9" id="connector2pin" x="0" fill="#8D8C8C"/>
        <rect width="16.4442" y="7.73544" height="16.4152" x="7.79153" fill="#8C8663"/>
        <polygon points="0,31.9,7.79153,24.1368,7.79153,6.97162,0,0" fill="#B8AF82"/>
        <polygon points="24.2079,7.76321,7.90264,7.76321,0,0,31.93,0" fill="#80795B"/>
        <polygon points="24.2079,24.1368,24.2079,7.76321,31.93,0,31.93,31.9" fill="#5E5B43"/>
        <polygon points="0,31.9,7.87486,24.1368,24.2079,24.1368,31.93,31.9" fill="#9A916C"/>
      </g>
    </g>
    <g transform="translate(181.311,34.05)">
      <g >
        <rect width="31.93" gorn="0.1.4.0.0" y="0" height="31.9" id="connector3pin" x="0" fill="#8D8C8C"/>
        <rect width="16.4442" y="7.73544" height="16.4152" x="7.79153" fill="#8C8663"/>
        <polygon points="0,31.9,7.79153,24.1368,7.79153,6.97162,0,0" fill="#B8AF82"/>
        <polygon points="24.2079,7.76321,7.90264,7.76321,0,0,31.93,0" fill="#80795B"/>
        <polygon points="24.2079,24.1368,24.2079,7.76321,31.93,0,31.93,31.9" fill="#5E5B43"/>
        <polygon points="0,31.9,7.87486,24.1368,24.2079,24.1368,31.93,31.9" fill="#9A916C"/>
      </g>
    </g>
  </g>
</svg>
