<?xml version="1.0" encoding="UTF-8" standalone="no"?>
<svg
  xmlns:dc="http://purl.org/dc/elements/1.1/"
  xmlns:cc="http://creativecommons.org/ns#"
  xmlns:rdf="http://www.w3.org/1999/02/22-rdf-syntax-ns#"
  xmlns:svg="http://www.w3.org/2000/svg"
  xmlns="http://www.w3.org/2000/svg"
  id="svg2936"
  xml:space="preserve"
  viewBox="0 0 595.275 841.89"
  height="841.89px"
  width="595.275px"
  y="0px"
  x="0px"
  version="1.2">
  <metadata id="metadata2942">
    <rdf:RDF>
      <cc:Work rdf:about="">
        <dc:format>image/svg+xml</dc:format>
        <dc:type rdf:resource="http://purl.org/dc/dcmitype/StillImage"/>
        <dc:title></dc:title>
      </cc:Work>
    </rdf:RDF>
  </metadata>
  <defs id="defs2940"/>
  <g id="breadboard">
    <rect id="connector1pin" x="272.51999" y="434.78" width="2.1600001" height="4.809" style="fill:#8c8c8c"/>
    <rect id="connector2pin" x="279.72" y="434.78" width="2.1600001" height="4.809" style="fill:#8c8c8c"/>
    <rect id="connector3pin" x="286.91901" y="434.78" width="2.1600001" height="4.809" style="fill:#8c8c8c"/>
    <rect id="connector4pin" x="294.121" y="434.78" width="2.158" height="4.809" style="fill:#8c8c8c"/>
    <rect id="connector5pin" x="294.121" y="415.82999" width="2.158" height="4.8099999" style="fill:#8c8c8c"/>
    <rect id="connector6pin" x="286.91901" y="415.82999" width="2.1600001" height="4.8099999" style="fill:#8c8c8c"/>
    <rect id="connector7pin" x="279.72" y="415.82999" width="2.1600001" height="4.8099999" style="fill:#8c8c8c"/>
    <rect id="connector8pin" x="272.51999" y="415.82999" width="2.1600001" height="4.8099999" style="fill:#8c8c8c"/>
    <polygon id="polygon36" points="298.259,424.11 270,424.11 270,417.99 298.8,417.99 " style="fill:#3e3e3e"/>
    <polygon id="polygon38" points="298.8,437.431 270,437.431 270,431.31 298.259,431.31 " style="fill:#010101"/>
    <polygon id="polygon40" points="272.52,417.514 272.52,418.955 276.12,418.955 276.12,418.177 274.68,417.514 " style="fill:#8c8c8c"/>
    <polygon id="polygon42" points="283.32,418.955 283.32,418.177 281.88,417.514 279.72,417.514 278.28,418.177 278.28,418.955 " style="fill:#8c8c8c"/>
    <polygon id="polygon44" points="292.681,418.177 292.681,418.955 296.279,418.955 296.279,417.514 294.121,417.514 " style="fill:#8c8c8c"/>
    <polygon id="polygon46" points="290.52,418.955 290.52,418.177 289.08,417.514 286.919,417.514 285.48,418.177 285.48,418.955 " style="fill:#8c8c8c"/>
    <polygon id="polygon48" points="276.12,437.243 276.12,436.466 272.52,436.466 272.52,437.905 274.68,437.905 " style="fill:#8c8c8c"/>
    <polygon id="polygon50" points="296.279,437.905 296.279,436.466 292.681,436.466 292.681,437.243 294.121,437.905 " style="fill:#8c8c8c"/>
    <polygon id="polygon52" points="278.28,436.466 278.28,437.243 279.72,437.905 281.88,437.905 283.32,437.243 283.32,436.466 " style="fill:#8c8c8c"/>
    <polygon id="polygon54" points="285.48,436.466 285.48,437.243 286.919,437.905 289.08,437.905 290.52,437.243 290.52,436.466 " style="fill:#8c8c8c"/>
    <polygon id="polygon56" points="298.8,417.99 298.259,419.761 297.253,419.761 297.253,435.651 298.259,435.659 298.8,437.431 " style="fill:#161616"/>
    <polygon id="polygon58" points="270.54,424.11 273.6,424.11 273.6,431.31 270.54,431.31 270.54,435.659 270,437.431 270,417.99 270.54,419.761 " style="fill:#1f2020"/>
    <polygon id="polygon60" points="270.403,427.702 273.6,427.702 273.6,424.11 270.54,424.081 270.403,425.606 " style="fill:#1c1c1c"/>
    <polygon id="polygon62" points="270.403,427.702 270.403,429.812 270.54,431.347 273.6,431.347 273.6,427.702 " style="fill:#383938"/>
    <path id="path64" d="m 270.54,419.761 v 4.313 c 1.713,0.324 3.017,1.822 3.017,3.629 0,1.809 -1.296,3.313 -3.017,3.637 v 4.313 h 27.719 V 419.762 H 270.54 Z" style="fill:#303030"/>
    <path id="path66" d="m 270.403,425.606 v 4.199 c 1.058,-0.123 1.886,-1.008 1.886,-2.104 0.001,-1.093 -0.82,-1.972 -1.886,-2.095 z" style="fill:#272626"/>
    <circle id="circle68" cx="274.67999" cy="432.729" r="1.483" style="fill:#212121"/>
    <text style="font-size:5px;font-family:ocra10;fill:#e6e6e6" id="text2931" font-size="5" transform="translate(277.2002,426.2041)">RGBW</text>
    <text style="font-size:5px;font-family:ocra10;fill:#e6e6e6" id="text2933" font-size="5" transform="translate(277.2002,432.2041)">LED</text>
  </g>
</svg>
