<?xml version='1.0' encoding='UTF-8' standalone='no'?>
<svg xmlns="http://www.w3.org/2000/svg" id="svg2936" y="0px" version="1.2" width="595.275px" xml:space="preserve" x="0px" height="841.89px" xmlns:xml="http://www.w3.org/XML/1998/namespace" viewBox="0 0 595.275 841.89" gorn="0">
  <desc >
    <referenceFile >RGBW_LED_4_breadboard.svg</referenceFile>
  </desc>
  <metadata id="metadata2942">
    <rdf:RDF xmlns:rdf="http://www.w3.org/1999/02/22-rdf-syntax-ns#">
      <cc:Work rdf:about="" xmlns:cc="http://creativecommons.org/ns#" xmlns:rdf="http://www.w3.org/1999/02/22-rdf-syntax-ns#">
        <dc:format xmlns:dc="http://purl.org/dc/elements/1.1/">image/svg+xml</dc:format>
        <dc:type xmlns:dc="http://purl.org/dc/elements/1.1/" xmlns:rdf="http://www.w3.org/1999/02/22-rdf-syntax-ns#" rdf:resource="http://purl.org/dc/dcmitype/StillImage"/>
        <dc:title xmlns:dc="http://purl.org/dc/elements/1.1/"/>
      </cc:Work>
    </rdf:RDF>
  </metadata>
  <defs id="defs2940"/>
  <g id="breadboard" gorn="0.3">
    <rect id="connector1pin" y="434.78" width="2.1600001" x="272.51999" height="4.809" style="fill:#8c8c8c" gorn="0.3.0"/>
    <rect id="connector2pin" y="434.78" width="2.1600001" x="279.72" height="4.809" style="fill:#8c8c8c" gorn="0.3.1"/>
    <rect id="connector3pin" y="434.78" width="2.1600001" x="286.91901" height="4.809" style="fill:#8c8c8c" gorn="0.3.2"/>
    <rect id="connector4pin" y="434.78" width="2.158" x="294.121" height="4.809" style="fill:#8c8c8c" gorn="0.3.3"/>
    <rect id="connector5pin" y="415.82999" width="2.158" x="294.121" height="4.8099999" style="fill:#8c8c8c" gorn="0.3.4"/>
    <rect id="connector6pin" y="415.82999" width="2.1600001" x="286.91901" height="4.8099999" style="fill:#8c8c8c" gorn="0.3.5"/>
    <rect id="connector7pin" y="415.82999" width="2.1600001" x="279.72" height="4.8099999" style="fill:#8c8c8c" gorn="0.3.6"/>
    <rect id="connector8pin" y="415.82999" width="2.1600001" x="272.51999" height="4.8099999" style="fill:#8c8c8c" gorn="0.3.7"/>
    <polygon id="polygon36" points="298.259,424.11 270,424.11 270,417.99 298.8,417.99 " style="fill:#3e3e3e" gorn="0.3.8"/>
    <polygon id="polygon38" points="298.8,437.431 270,437.431 270,431.31 298.259,431.31 " style="fill:#010101" gorn="0.3.9"/>
    <polygon id="polygon40" points="272.52,417.514 272.52,418.955 276.12,418.955 276.12,418.177 274.68,417.514 " style="fill:#8c8c8c" gorn="0.3.10"/>
    <polygon id="polygon42" points="283.32,418.955 283.32,418.177 281.88,417.514 279.72,417.514 278.28,418.177 278.28,418.955 " style="fill:#8c8c8c" gorn="0.3.11"/>
    <polygon id="polygon44" points="292.681,418.177 292.681,418.955 296.279,418.955 296.279,417.514 294.121,417.514 " style="fill:#8c8c8c" gorn="0.3.12"/>
    <polygon id="polygon46" points="290.52,418.955 290.52,418.177 289.08,417.514 286.919,417.514 285.48,418.177 285.48,418.955 " style="fill:#8c8c8c" gorn="0.3.13"/>
    <polygon id="polygon48" points="276.12,437.243 276.12,436.466 272.52,436.466 272.52,437.905 274.68,437.905 " style="fill:#8c8c8c" gorn="0.3.14"/>
    <polygon id="polygon50" points="296.279,437.905 296.279,436.466 292.681,436.466 292.681,437.243 294.121,437.905 " style="fill:#8c8c8c" gorn="0.3.15"/>
    <polygon id="polygon52" points="278.28,436.466 278.28,437.243 279.72,437.905 281.88,437.905 283.32,437.243 283.32,436.466 " style="fill:#8c8c8c" gorn="0.3.16"/>
    <polygon id="polygon54" points="285.48,436.466 285.48,437.243 286.919,437.905 289.08,437.905 290.52,437.243 290.52,436.466 " style="fill:#8c8c8c" gorn="0.3.17"/>
    <polygon id="polygon56" points="298.8,417.99 298.259,419.761 297.253,419.761 297.253,435.651 298.259,435.659 298.8,437.431 " style="fill:#161616" gorn="0.3.18"/>
    <polygon id="polygon58" points="270.54,424.11 273.6,424.11 273.6,431.31 270.54,431.31 270.54,435.659 270,437.431 270,417.99 270.54,419.761 " style="fill:#1f2020" gorn="0.3.19"/>
    <polygon id="polygon60" points="270.403,427.702 273.6,427.702 273.6,424.11 270.54,424.081 270.403,425.606 " style="fill:#1c1c1c" gorn="0.3.20"/>
    <polygon id="polygon62" points="270.403,427.702 270.403,429.812 270.54,431.347 273.6,431.347 273.6,427.702 " style="fill:#383938" gorn="0.3.21"/>
    <path id="path64" d="m 270.54,419.761 v 4.313 c 1.713,0.324 3.017,1.822 3.017,3.629 0,1.809 -1.296,3.313 -3.017,3.637 v 4.313 h 27.719 V 419.762 H 270.54 Z" style="fill:#303030" gorn="0.3.22"/>
    <path id="path66" d="m 270.403,425.606 v 4.199 c 1.058,-0.123 1.886,-1.008 1.886,-2.104 0.001,-1.093 -0.82,-1.972 -1.886,-2.095 z" style="fill:#272626" gorn="0.3.23"/>
    <circle id="circle68" cy="432.729" r="1.483" style="fill:#212121" gorn="0.3.24" cx="274.67999"/>
    <g transform="translate(277.2002,426.2041)">
      <g >
        <g >
          <text id="text2931" font-size="5" style="font-size:5px;font-family:Droid Sans;fill:#e6e6e6" gorn="0.3.25.0.0.0">RGBW</text>
        </g>
      </g>
    </g>
    <g transform="translate(277.2002,432.2041)">
      <g >
        <g >
          <text id="text2933" font-size="5" style="font-size:5px;font-family:Droid Sans;fill:#e6e6e6" gorn="0.3.26.0.0.0">LED</text>
        </g>
      </g>
    </g>
  </g>
</svg>
