<?xml version='1.0' encoding='UTF-8' standalone='no'?>
<svg xmlns="http://www.w3.org/2000/svg" version="1.2" viewBox="0 0 40 33" gorn="0" height="0.33in" width="0.4in" id="svg2" >
    <metadata id="metadata46" >
        <rdf:RDF xmlns:rdf="http://www.w3.org/1999/02/22-rdf-syntax-ns#">
            <cc:Work xmlns:rdf="http://www.w3.org/1999/02/22-rdf-syntax-ns#" xmlns:cc="http://creativecommons.org/ns#" rdf:about="">
                <dc:format xmlns:dc="http://purl.org/dc/elements/1.1/">image/svg+xml</dc:format>
                <dc:type xmlns:rdf="http://www.w3.org/1999/02/22-rdf-syntax-ns#" rdf:resource="http://purl.org/dc/dcmitype/StillImage" xmlns:dc="http://purl.org/dc/elements/1.1/"/>
                <dc:title xmlns:dc="http://purl.org/dc/elements/1.1/"/>
            </cc:Work>
        </rdf:RDF>
    </metadata>
    <defs id="defs44" >
        <filter x="-0.0504" y="-0.126" height="1.252" width="1.1008" id="filter855"  style="color-interpolation-filters:sRGB">
            <feGaussianBlur stdDeviation="0.105" id="feGaussianBlur857" />
        </filter>
    </defs>
    <desc id="desc2" >
        <referenceFile >generic_ic_dip_8_300mil_bread.svg</referenceFile>
    </desc>
    <g gorn="0.3" id="breadboard" >
        <rect x="0" gorn="0.3.0" y="3" height="27" width="40" id="middle"  style="fill:#303030"/>
        <rect x="0" gorn="0.3.1" y="3" height="2.46" width="40" id="top"  style="fill:#3d3d3d"/>
        <rect x="0" gorn="0.3.2" y="27.540001" height="2.46" width="40" id="bottom"  style="fill:#000000"/>
        <polygon gorn="0.3.3" points="39.25,27.54 40,30 40,3 39.25,5.46 " id="right"  style="fill:#141414"/>
        <polygon gorn="0.3.4" points="0.75,27.54 0,30 0,3 0.75,5.46 " id="left"  style="fill:#1f1f1f"/>
        <polygon gorn="0.3.5" points="0.75,11.46 0.56,13.58 0.56,16.5 5,16.5 5,11.5 " id="left-upper-rect"  style="fill:#1c1c1c"/>
        <polygon gorn="0.3.6" points="5,21.55 5,16.5 0.56,16.5 0.56,19.42 0.75,21.55 " id="left-lower-rect"  style="fill:#383838"/>
        <path gorn="0.3.7" d="m 0.56,13.58 v 5.83 c 1.47,-0.17 2.62,-1.4 2.62,-2.92 0,-1.52 -1.14,-2.74 -2.62,-2.91 z" id="slot"  style="fill:#262626"/>
        <path gorn="0.3.8" d="m 0.75,5.46 v 5.99 c 2.38,0.45 4.19,2.53 4.19,5.04 0,2.51 -1.8,4.6 -4.19,5.05 v 0.01 h 5 V 5.46 Z" id="cover"  style="fill:#303030"/>
        <circle cx="6.5" r="2.0599999" gorn="0.3.9" id="circle13" cy="23.469999"  style="fill:#212121"/>
        <text x="6.5" font-size="8" gorn="0.3.10" y="16.5" id="label"  style="font-size:8px;font-family:OCRA;text-anchor:start;fill:#e6e6e6;stroke:none">RGBW</text>
        <rect x="3.5" gorn="0.3.11" y="28.66" height="4.3400002" width="3" id="connector1pin"  style="fill:#8c8c8c"/>
        <polygon gorn="0.3.12" points="6.5,30.66 8.5,29.74 8.5,28.66 3.5,28.66 3.5,30.66 " id="polygon17"  style="fill:#8c8c8c;filter:url(#filter855)"/>
        <rect x="3.5" gorn="0.3.13" y="0" height="4.3400002" width="3" id="connector8pin"  style="fill:#8c8c8c"/>
        <polygon gorn="0.3.14" points="8.5,3.26 6.5,2.34 3.5,2.34 3.5,4.34 8.5,4.34 " id="polygon20"  style="fill:#8c8c8c"/>
        <rect x="33.5" gorn="0.3.15" y="28.66" height="4.3400002" width="3" id="connector4pin"  style="fill:#8c8c8c"/>
        <polygon gorn="0.3.16" points="31.5,29.74 33.5,30.66 36.5,30.66 36.5,28.66 31.5,28.66 " id="polygon23"  style="fill:#8c8c8c"/>
        <rect x="33.5" gorn="0.3.17" y="0" height="4.3400002" width="3" id="connector5pin"  style="fill:#8c8c8c"/>
        <polygon gorn="0.3.18" points="36.5,2.34 33.5,2.34 31.5,3.26 31.5,4.34 36.5,4.34 " id="polygon26"  style="fill:#8c8c8c"/>
        <rect x="13.5" gorn="0.3.19" y="0" height="4.3400002" width="3" id="connector7pin"  style="fill:#8c8c8c"/>
        <polygon gorn="0.3.20" points="18.5,4.34 18.5,3.26 16.5,2.34 13.5,2.34 11.5,3.26 11.5,4.34 " id="polygon29"  style="fill:#8c8c8c"/>
        <rect x="23.5" gorn="0.3.21" y="0" height="4.3400002" width="3" id="connector6pin"  style="fill:#8c8c8c"/>
        <polygon gorn="0.3.22" points="28.5,4.34 28.5,3.26 26.5,2.34 23.5,2.34 21.5,3.26 21.5,4.34 " id="polygon32"  style="fill:#8c8c8c"/>
        <rect x="13.5" gorn="0.3.23" y="28.66" height="4.3400002" width="3" id="connector2pin"  style="fill:#8c8c8c"/>
        <polygon gorn="0.3.24" points="11.5,28.66 11.5,29.74 13.5,30.66 16.5,30.66 18.5,29.74 18.5,28.66 " id="polygon35"  style="fill:#8c8c8c"/>
        <rect x="23.5" gorn="0.3.25" y="28.66" height="4.3400002" width="3" id="connector3pin"  style="fill:#8c8c8c"/>
        <polygon gorn="0.3.26" points="21.5,28.66 21.5,29.74 23.5,30.66 26.5,30.66 28.5,29.74 28.5,28.66 " id="polygon38"  style="fill:#8c8c8c"/>
        <text x="10.666666" font-size="8" gorn="0.3.27" y="23.911016" id="text853"  style="font-size:8px;font-family:OCRA;text-anchor:start;fill:#e6e6e6;stroke:none">LED</text>
    </g>
</svg>
