<?xml version="1.0" encoding="UTF-8" standalone="no"?>
<svg
  xmlns:dc="http://purl.org/dc/elements/1.1/"
  xmlns:cc="http://creativecommons.org/ns#"
  xmlns:rdf="http://www.w3.org/1999/02/22-rdf-syntax-ns#"
  xmlns:svg="http://www.w3.org/2000/svg"
  xmlns="http://www.w3.org/2000/svg"
  version="1.2"
  gorn="0"
  height="0.33in"
  viewBox="0 0 40 33"
  width="0.4in"
  id="svg2">
  <metadata id="metadata46">
    <rdf:RDF>
      <cc:Work rdf:about="">
        <dc:format>image/svg+xml</dc:format>
        <dc:type rdf:resource="http://purl.org/dc/dcmitype/StillImage"/>
        <dc:title></dc:title>
      </cc:Work>
    </rdf:RDF>
  </metadata>
  <defs id="defs44">
    <filter height="1.252" y="-0.126" width="1.1008" x="-0.0504" id="filter855" style="color-interpolation-filters:sRGB">
      <feGaussianBlur id="feGaussianBlur857" stdDeviation="0.105"/>
    </filter>
  </defs>
  <desc id="desc2">
    <referenceFile>generic_ic_dip_8_300mil_bread.svg</referenceFile>
  </desc>
  <g gorn="0.0" id="breadboard">
    <rect style="fill:#303030" x="0" y="3" gorn="0.0.0" height="27" width="40" id="middle"/>
    <rect style="fill:#3d3d3d" x="0" y="3" gorn="0.0.1" height="2.46" width="40" id="top"/>
    <rect style="fill:#000000" x="0" y="27.540001" gorn="0.0.2" height="2.46" width="40" id="bottom"/>
    <polygon style="fill:#141414" gorn="0.0.3" points="39.25,27.54 40,30 40,3 39.25,5.46 " id="right"/>
    <polygon style="fill:#1f1f1f" gorn="0.0.4" points="0.75,27.54 0,30 0,3 0.75,5.46 " id="left"/>
    <polygon style="fill:#1c1c1c" gorn="0.0.5" points="0.75,11.46 0.56,13.58 0.56,16.5 5,16.5 5,11.5 " id="left-upper-rect"/>
    <polygon style="fill:#383838" gorn="0.0.6" points="5,21.55 5,16.5 0.56,16.5 0.56,19.42 0.75,21.55 " id="left-lower-rect"/>
    <path style="fill:#262626" gorn="0.0.7" d="m 0.56,13.58 v 5.83 c 1.47,-0.17 2.62,-1.4 2.62,-2.92 0,-1.52 -1.14,-2.74 -2.62,-2.91 z" id="slot"/>
    <path style="fill:#303030" gorn="0.0.8" d="m 0.75,5.46 v 5.99 c 2.38,0.45 4.19,2.53 4.19,5.04 0,2.51 -1.8,4.6 -4.19,5.05 v 0.01 h 5 V 5.46 Z" id="cover"/>
    <circle style="fill:#212121" id="circle13" r="2.0599999" cx="6.5" cy="23.469999"/>
    <text style="font-size:8px;font-family:OCRA;text-anchor:start;fill:#e6e6e6;stroke:none" x="6.5" y="16.5" gorn="0.0.10" font-size="8" id="label">RGBW</text>
    <rect style="fill:#8c8c8c" x="3.5" y="28.66" gorn="0.0.11" height="4.3400002" width="3" id="connector1pin"/>
    <polygon style="fill:#8c8c8c;filter:url(#filter855)" id="polygon17" points="6.5,30.66 8.5,29.74 8.5,28.66 3.5,28.66 3.5,30.66 "/>
    <rect style="fill:#8c8c8c" y="0" x="3.5" gorn="0.0.14" height="4.3400002" width="3" id="connector8pin"/>
    <polygon style="fill:#8c8c8c" id="polygon20" points="8.5,3.26 6.5,2.34 3.5,2.34 3.5,4.34 8.5,4.34 "/>
    <rect style="fill:#8c8c8c" x="33.5" y="28.66" gorn="0.0.17" height="4.3400002" width="3" id="connector4pin"/>
    <polygon style="fill:#8c8c8c" id="polygon23" points="31.5,29.74 33.5,30.66 36.5,30.66 36.5,28.66 31.5,28.66 "/>
    <rect style="fill:#8c8c8c" x="33.5" y="0" gorn="0.0.20" height="4.3400002" width="3" id="connector5pin"/>
    <polygon style="fill:#8c8c8c" id="polygon26" points="36.5,2.34 33.5,2.34 31.5,3.26 31.5,4.34 36.5,4.34 "/>
    <rect style="fill:#8c8c8c" x="13.5" y="0" gorn="0.0.23" height="4.3400002" width="3" id="connector7pin"/>
    <polygon style="fill:#8c8c8c" id="polygon29" points="18.5,4.34 18.5,3.26 16.5,2.34 13.5,2.34 11.5,3.26 11.5,4.34 "/>
    <rect style="fill:#8c8c8c" x="23.5" y="0" gorn="0.0.26" height="4.3400002" width="3" id="connector6pin"/>
    <polygon style="fill:#8c8c8c" id="polygon32" points="28.5,4.34 28.5,3.26 26.5,2.34 23.5,2.34 21.5,3.26 21.5,4.34 "/>
    <rect style="fill:#8c8c8c" x="13.5" y="28.66" gorn="0.0.29" height="4.3400002" width="3" id="connector2pin"/>
    <polygon style="fill:#8c8c8c" id="polygon35" points="11.5,28.66 11.5,29.74 13.5,30.66 16.5,30.66 18.5,29.74 18.5,28.66 "/>
    <rect style="fill:#8c8c8c" x="23.5" y="28.66" gorn="0.0.32" height="4.3400002" width="3" id="connector3pin"/>
    <polygon style="fill:#8c8c8c" id="polygon38" points="21.5,28.66 21.5,29.74 23.5,30.66 26.5,30.66 28.5,29.74 28.5,28.66 "/>
    <text id="text853" font-size="8" gorn="0.0.10" y="23.911016" x="10.666666" style="font-size:8px;font-family:OCRA;text-anchor:start;fill:#e6e6e6;stroke:none">LED</text>
  </g>
</svg>
